<svg id="svg" version="1.1" xmlns="http://www.w3.org/2000/svg" xmlns:xlink="http://www.w3.org/1999/xlink" width="400" height="377.26218097447793" viewBox="0, 0, 400,377.26218097447793"><g id="svgg"><path id="path0" d="M242.517 13.399 L 236.195 13.465 236.195 19.231 L 236.195 24.998 238.573 25.153 C 260.194 26.560,273.758 29.857,277.909 34.713 C 282.006 39.506,281.316 44.548,273.841 64.460 L 269.980 74.744 270.779 75.361 C 273.211 77.240,275.315 79.658,276.420 81.841 C 277.797 84.564,277.726 82.291,277.726 123.616 L 277.726 161.521 278.364 160.749 C 280.766 157.843,288.524 148.826,288.676 148.763 C 288.779 148.720,288.863 131.050,288.863 109.495 L 288.863 70.305 305.355 70.245 L 321.847 70.186 323.405 66.705 C 326.896 58.907,332.003 49.675,335.213 45.360 C 342.663 35.344,355.836 28.446,372.854 25.650 C 374.066 25.451,375.397 25.231,375.812 25.162 L 376.566 25.037 376.566 19.131 L 376.566 13.225 312.703 13.279 C 277.578 13.309,245.995 13.363,242.517 13.399 M112.993 157.572 L 112.993 160.387 118.239 174.451 C 121.124 182.186,123.525 188.559,123.575 188.612 C 123.625 188.665,123.665 182.870,123.664 175.735 L 123.662 162.761 120.242 158.759 L 116.821 154.758 114.907 154.757 L 112.993 154.756 112.993 157.572 M130.263 207.019 C 131.951 211.515,163.042 294.941,174.774 326.450 L 188.552 363.457 194.276 363.519 L 200.000 363.581 200.000 309.651 L 200.000 255.721 199.362 255.576 C 198.282 255.330,197.098 253.960,196.648 252.436 C 196.554 252.117,195.938 250.394,195.280 248.608 L 194.084 245.360 189.907 240.452 C 187.610 237.753,179.988 228.803,172.970 220.564 L 160.209 205.584 144.964 205.576 L 129.719 205.568 130.263 207.019 M213.493 225.456 C 209.402 236.394,206.075 245.358,206.101 245.377 C 206.168 245.425,239.774 205.999,239.869 205.763 C 239.911 205.656,235.667 205.568,230.438 205.568 L 220.931 205.568 213.493 225.456 " stroke="none" fill="#ac2c2c" fill-rule="evenodd"></path><path id="path1" d="M23.434 19.131 L 23.434 25.037 24.188 25.160 C 28.416 25.848,29.696 26.084,31.899 26.581 C 55.513 31.912,66.089 41.662,77.626 68.735 L 78.294 70.302 103.393 70.302 L 128.492 70.302 125.515 62.429 C 118.063 42.729,117.940 37.159,124.854 32.463 C 129.614 29.231,141.313 26.787,158.759 25.378 L 163.805 24.971 163.805 19.252 L 163.805 13.533 154.582 13.379 C 149.510 13.295,117.926 13.226,84.397 13.225 L 23.434 13.225 23.434 19.131 M112.993 112.413 L 112.993 120.882 118.329 120.882 L 123.666 120.882 123.666 112.413 L 123.666 103.944 118.329 103.944 L 112.993 103.944 112.993 112.413 M283.295 154.903 C 280.423 158.288,277.995 161.198,277.898 161.370 C 277.801 161.542,277.749 167.036,277.782 173.578 L 277.842 185.472 283.353 170.710 L 288.863 155.948 288.863 152.336 C 288.863 150.349,288.785 148.730,288.689 148.737 C 288.593 148.744,286.166 151.518,283.295 154.903 M117.198 155.162 C 117.572 155.640,122.901 161.908,123.355 162.405 C 123.616 162.690,123.666 162.102,123.666 158.750 L 123.666 154.756 120.273 154.756 C 117.076 154.756,116.899 154.780,117.198 155.162 M167.749 190.443 L 167.749 205.557 164.005 205.621 L 160.260 205.684 176.672 224.942 C 195.287 246.785,194.133 245.475,193.642 244.200 C 193.446 243.689,187.584 228.029,180.617 209.399 C 173.649 190.770,167.903 175.483,167.849 175.428 C 167.794 175.373,167.749 182.130,167.749 190.443 M271.462 199.902 C 268.695 202.167,265.318 203.877,261.528 204.931 C 259.865 205.393,259.078 205.433,249.884 205.523 L 240.023 205.619 223.434 225.079 C 214.310 235.783,206.604 244.845,206.309 245.218 C 205.685 246.010,204.198 249.971,203.928 251.561 C 203.613 253.419,202.116 255.318,200.754 255.587 L 200.000 255.736 200.000 309.655 L 200.000 363.573 205.742 363.571 L 211.485 363.569 225.969 324.650 C 233.935 303.244,247.538 266.729,256.197 243.503 C 264.856 220.278,272.145 200.728,272.394 200.058 C 272.643 199.388,272.823 198.844,272.793 198.849 C 272.762 198.854,272.164 199.328,271.462 199.902 " stroke="none" fill="#242424" fill-rule="evenodd"></path><path id="path2" d="M20.418 19.142 L 20.418 28.074 21.404 28.078 C 24.100 28.090,30.919 29.418,36.334 30.985 C 50.586 35.111,58.984 41.234,65.682 52.382 C 68.334 56.796,74.710 69.364,74.710 70.178 C 74.710 70.246,73.353 70.302,71.694 70.302 L 68.677 70.302 68.677 137.904 L 68.677 205.507 90.429 205.674 C 102.393 205.766,115.371 205.803,119.271 205.755 L 126.361 205.669 127.724 209.389 C 128.474 211.435,129.132 213.240,129.186 213.399 C 129.264 213.630,122.100 213.689,93.876 213.689 L 58.469 213.689 58.469 162.993 L 58.469 112.297 36.311 112.297 L 14.153 112.297 14.153 171.936 C 14.153 235.936,14.114 233.635,15.252 235.838 C 16.735 238.705,19.874 241.957,22.970 243.834 C 23.672 244.260,24.298 244.683,24.362 244.774 C 24.426 244.865,25.365 245.295,26.450 245.729 C 27.535 246.164,28.479 246.595,28.548 246.687 C 29.195 247.550,30.102 247.564,86.878 247.564 C 130.754 247.564,141.755 247.622,141.950 247.857 C 142.165 248.116,148.648 265.461,178.548 345.766 L 186.388 366.821 200.064 366.763 L 213.740 366.705 223.458 340.603 C 251.710 264.723,257.846 248.284,258.025 247.996 C 258.188 247.731,267.411 247.661,314.783 247.562 C 372.558 247.441,372.352 247.444,373.434 246.649 C 373.561 246.555,374.529 246.136,375.583 245.718 C 376.638 245.299,377.559 244.863,377.630 244.747 C 377.701 244.632,378.279 244.241,378.914 243.879 C 382.398 241.889,387.007 236.637,387.007 234.657 C 387.007 234.482,387.123 234.339,387.264 234.339 C 387.405 234.339,387.461 234.182,387.387 233.991 C 387.314 233.799,387.355 233.643,387.478 233.643 C 387.623 233.643,387.703 206.971,387.703 158.933 C 387.703 107.189,387.629 84.223,387.461 84.223 C 387.328 84.223,387.244 84.092,387.276 83.933 C 387.307 83.773,387.103 83.133,386.822 82.511 C 386.541 81.889,386.311 81.324,386.311 81.256 C 386.311 80.392,381.635 75.643,379.466 74.305 C 378.956 73.990,378.173 73.490,377.726 73.194 C 377.280 72.897,376.183 72.370,375.290 72.022 C 374.397 71.674,373.555 71.304,373.419 71.201 C 371.803 69.969,350.827 70.009,350.387 71.245 C 350.344 71.364,350.086 71.462,349.814 71.462 C 349.019 71.462,343.279 72.897,343.194 73.118 C 343.152 73.228,343.017 73.318,342.894 73.318 C 342.530 73.318,338.177 74.985,338.051 75.173 C 337.987 75.268,337.295 75.668,336.512 76.062 C 335.729 76.456,334.946 76.916,334.772 77.086 C 334.597 77.255,334.115 77.632,333.701 77.924 L 332.947 78.454 332.947 74.378 L 332.947 70.302 329.132 70.302 L 325.317 70.302 326.049 68.619 C 336.722 44.092,346.027 35.392,367.293 30.057 C 371.399 29.027,376.924 28.078,378.828 28.076 L 379.814 28.074 379.814 19.142 L 379.814 10.209 306.497 10.209 L 233.179 10.209 233.179 19.112 L 233.179 28.015 236.021 28.177 C 260.052 29.551,273.770 32.995,276.476 38.334 C 278.350 42.031,276.021 50.785,267.409 72.416 C 267.270 72.766,263.998 71.731,263.573 71.201 C 262.441 69.792,194.067 69.806,193.039 71.216 C 192.976 71.303,192.291 71.609,191.518 71.894 C 190.062 72.432,186.698 74.405,185.523 75.411 C 181.923 78.492,179.350 81.914,179.350 83.618 C 179.350 83.802,179.220 83.996,179.060 84.049 C 178.644 84.188,178.633 191.071,179.050 191.902 C 179.203 192.209,179.646 193.177,180.034 194.053 C 180.643 195.430,181.196 196.239,182.673 197.912 C 183.268 198.585,185.047 200.080,186.195 200.870 C 186.833 201.309,187.407 201.753,187.472 201.858 C 187.691 202.212,192.559 204.410,193.904 204.761 C 196.656 205.480,198.243 205.573,207.732 205.568 C 215.726 205.564,217.423 205.618,217.361 205.874 C 217.319 206.045,216.659 207.873,215.893 209.935 L 214.501 213.686 200.083 213.688 C 186.566 213.689,185.654 213.664,185.503 213.283 C 185.414 213.060,181.435 202.443,176.661 189.690 L 167.981 166.503 167.981 156.334 C 167.981 146.067,167.779 143.387,167.002 143.387 C 166.887 143.387,166.858 143.283,166.937 143.155 C 167.016 143.028,166.970 142.923,166.835 142.923 C 166.700 142.923,166.589 142.804,166.589 142.659 C 166.589 141.422,162.833 138.533,160.536 138.002 L 159.387 137.737 160.868 137.364 C 163.462 136.711,166.269 134.268,167.469 131.617 C 168.529 129.276,167.951 82.135,166.862 82.135 C 166.774 82.135,166.470 81.628,166.187 81.010 C 165.266 79.004,162.277 76.029,159.247 74.105 C 158.500 73.630,157.836 73.171,157.773 73.084 C 157.709 72.997,156.769 72.571,155.684 72.136 C 154.600 71.702,153.656 71.271,153.587 71.179 C 153.098 70.527,149.859 70.302,140.980 70.302 L 131.875 70.302 128.600 61.543 C 121.281 41.969,121.156 38.109,127.726 34.457 C 132.609 31.743,146.037 29.369,162.703 28.274 L 167.053 27.988 167.053 19.098 L 167.053 10.209 93.735 10.209 L 20.418 10.209 20.418 19.142 M164.037 19.127 L 164.037 25.030 163.051 25.149 C 162.509 25.215,159.977 25.436,157.425 25.641 C 136.929 27.284,125.520 30.371,121.946 35.239 C 118.436 40.021,119.120 45.060,125.628 62.388 C 127.229 66.649,128.538 70.173,128.538 70.219 C 128.538 70.264,117.204 70.302,103.352 70.302 L 78.165 70.302 77.579 68.968 C 68.132 47.465,60.933 38.367,48.608 32.359 C 42.447 29.355,32.658 26.428,25.609 25.482 L 23.434 25.190 23.434 19.208 L 23.434 13.225 93.735 13.225 L 164.037 13.225 164.037 19.127 M376.798 19.149 C 376.798 23.690,376.730 25.092,376.508 25.154 C 376.349 25.199,375.043 25.410,373.607 25.625 C 357.550 28.020,343.910 34.809,336.330 44.177 C 332.565 48.831,326.596 59.508,322.731 68.503 L 321.958 70.302 305.411 70.302 L 288.863 70.302 288.863 113.359 L 288.863 156.416 283.392 171.074 C 280.383 179.135,277.837 185.817,277.736 185.923 C 277.634 186.029,277.564 163.477,277.580 135.807 C 277.614 79.377,277.770 84.539,275.928 81.206 C 275.126 79.757,271.923 76.273,270.465 75.265 L 269.816 74.816 273.569 64.844 C 281.453 43.895,282.023 39.046,277.172 34.210 C 272.855 29.907,260.821 26.948,241.879 25.532 C 240.093 25.398,238.083 25.230,237.413 25.157 L 236.195 25.025 236.195 19.125 L 236.195 13.225 306.497 13.225 L 376.798 13.225 376.798 19.149 M14.153 87.239 L 14.153 104.176 36.311 104.176 L 58.469 104.176 58.469 87.239 L 58.469 70.302 36.311 70.302 L 14.153 70.302 14.153 87.239 M123.898 112.533 L 123.898 121.122 118.387 121.060 L 112.877 120.998 112.816 112.471 L 112.755 103.944 118.327 103.944 L 123.898 103.944 123.898 112.533 M233.400 133.701 L 233.389 163.225 231.812 167.401 L 230.234 171.578 226.602 171.642 L 222.970 171.706 222.970 137.941 L 222.970 104.176 228.190 104.176 L 233.411 104.176 233.400 133.701 M343.387 159.049 L 343.387 213.689 307.231 213.689 C 287.345 213.689,271.021 213.635,270.954 213.568 C 270.888 213.502,274.372 203.975,278.696 192.397 C 283.020 180.819,286.999 170.146,287.537 168.680 L 288.515 166.015 288.574 185.791 L 288.634 205.568 310.790 205.568 L 332.947 205.568 332.947 154.988 L 332.947 104.408 338.167 104.408 L 343.387 104.408 343.387 159.049 M123.898 172.196 C 123.898 181.788,123.852 189.591,123.797 189.535 C 123.741 189.480,121.268 182.963,118.302 175.053 L 112.909 160.673 112.812 157.715 L 112.714 154.756 118.306 154.756 L 123.898 154.756 123.898 172.196 M122.413 195.025 L 123.434 197.823 123.434 201.580 L 123.434 205.336 118.213 205.336 L 112.993 205.336 113.005 187.529 L 113.018 169.722 117.205 180.974 C 119.508 187.164,121.852 193.486,122.413 195.025 M182.332 213.623 C 190.128 234.451,196.579 251.783,196.668 252.138 C 197.324 254.762,199.635 256.223,201.530 255.209 C 202.294 254.800,203.691 252.600,203.766 251.688 C 203.800 251.265,207.639 240.721,212.297 228.258 L 220.766 205.597 239.675 205.505 C 256.193 205.424,258.804 205.364,260.318 205.028 C 264.954 204.001,268.383 202.317,271.909 199.335 C 273.481 198.005,275.513 192.214,256.899 242.111 C 248.092 265.719,234.338 302.628,226.335 324.130 C 218.332 345.632,211.711 363.304,211.621 363.401 C 211.430 363.606,188.737 363.756,188.534 363.554 C 188.460 363.479,179.692 340.039,169.051 311.465 C 158.410 282.891,145.242 247.558,139.788 232.947 C 134.334 218.335,129.821 206.198,129.758 205.976 C 129.651 205.594,130.701 205.568,148.639 205.512 L 167.633 205.452 167.707 190.139 C 167.748 181.717,167.865 175.035,167.969 175.290 C 168.072 175.545,174.536 192.795,182.332 213.623 " stroke="none" fill="#fbfbfb" fill-rule="evenodd"></path><path id="path3" d="M163.906 19.142 C 163.906 22.459,163.939 23.784,163.979 22.086 C 164.018 20.388,164.018 17.673,163.978 16.054 C 163.939 14.434,163.906 15.824,163.906 19.142 M376.566 19.188 C 376.502 22.532,376.530 25.187,376.628 25.089 C 376.726 24.991,376.778 22.255,376.744 19.010 L 376.682 13.109 376.566 19.188 M60.905 41.067 C 61.533 41.705,62.100 42.227,62.164 42.227 C 62.227 42.227,61.765 41.705,61.137 41.067 C 60.508 40.429,59.942 39.907,59.878 39.907 C 59.814 39.907,60.276 40.429,60.905 41.067 M112.873 112.413 L 112.877 120.998 118.329 121.004 L 123.782 121.010 118.390 120.942 L 112.999 120.873 112.933 112.351 L 112.868 103.828 112.873 112.413 M112.850 157.425 C 112.850 158.956,112.888 159.552,112.933 158.750 C 112.978 157.947,112.978 156.694,112.932 155.965 C 112.886 155.237,112.849 155.893,112.850 157.425 M277.494 173.782 C 277.494 180.588,277.550 186.100,277.618 186.032 C 277.773 185.878,277.761 161.674,277.606 161.520 C 277.545 161.458,277.494 166.976,277.494 173.782 M194.732 363.746 C 195.727 363.789,197.293 363.789,198.212 363.745 C 199.132 363.701,198.318 363.666,196.404 363.666 C 194.490 363.666,193.737 363.702,194.732 363.746 " stroke="none" fill="#a5a5a5" fill-rule="evenodd"></path><path id="path4" d="M154.596 13.399 C 156.359 13.438,159.178 13.438,160.861 13.398 C 162.544 13.359,161.102 13.326,157.657 13.327 C 154.211 13.327,152.834 13.359,154.596 13.399 M239.269 13.399 C 241.024 13.438,243.895 13.438,245.650 13.399 C 247.404 13.359,245.969 13.327,242.459 13.327 C 238.950 13.327,237.515 13.359,239.269 13.399 M338.856 41.125 L 337.471 42.575 338.921 41.191 C 340.268 39.904,340.477 39.675,340.306 39.675 C 340.270 39.675,339.618 40.328,338.856 41.125 M280.342 41.531 C 280.342 42.106,280.387 42.340,280.442 42.053 C 280.497 41.766,280.497 41.296,280.442 41.009 C 280.387 40.722,280.342 40.957,280.342 41.531 M123.771 112.529 C 123.771 117.187,123.802 119.092,123.840 116.763 C 123.877 114.434,123.877 110.624,123.840 108.295 C 123.802 105.966,123.771 107.871,123.771 112.529 M123.611 171.832 C 123.577 181.224,123.627 189.028,123.720 189.175 C 123.814 189.323,123.892 181.639,123.894 172.100 C 123.896 162.561,123.847 154.756,123.785 154.756 C 123.723 154.756,123.644 162.440,123.611 171.832 " stroke="none" fill="#a78c8c" fill-rule="evenodd"></path></g></svg>